<?xml version="1.0" standalone="no"?>
<!DOCTYPE svg PUBLIC "-//W3C//DTD SVG 20010904//EN"
 "http://www.w3.org/TR/2001/REC-SVG-20010904/DTD/svg10.dtd">
<svg version="1.0" xmlns="http://www.w3.org/2000/svg"
 width="250.000000pt" height="250.000000pt" viewBox="0 0 250.000000 250.000000"
 preserveAspectRatio="xMidYMid meet">

<g transform="translate(0.000000,250.000000) scale(0.100000,-0.100000)"
fill="#d9aa11" stroke="none">
<path d="M618 2490 c-93 -28 -143 -99 -142 -202 0 -59 5 -78 47 -160 51 -103
146 -220 241 -299 71 -57 66 -59 142 57 56 84 140 171 237 243 l57 44 -33 41
c-52 62 -190 170 -277 215 -116 61 -206 81 -272 61z"/>
<path d="M1551 2205 c-40 -7 -101 -24 -134 -36 -143 -53 -305 -193 -410 -351
-60 -91 -127 -219 -127 -243 0 -9 26 -41 58 -73 154 -151 255 -361 282 -583
14 -118 1 -237 -37 -356 -15 -46 -23 -86 -19 -90 14 -15 117 51 171 109 122
132 183 311 250 739 45 282 55 321 115 444 36 74 68 122 124 185 90 99 118
158 95 199 -25 45 -80 64 -193 67 -58 2 -133 -3 -175 -11z"/>
<path d="M273 2190 c-78 -47 -192 -242 -232 -395 -75 -291 -38 -592 107 -868
121 -230 325 -400 550 -458 105 -27 119 -26 124 11 4 28 0 33 -62 70 -456 270
-677 682 -605 1125 19 117 88 345 105 345 3 0 25 -40 49 -90 59 -119 140 -220
350 -429 183 -184 230 -245 281 -366 56 -135 88 -363 60 -430 l-8 -20 -7 20
c-78 207 -180 346 -324 444 l-59 41 -25 -43 -25 -42 107 -110 c216 -223 294
-398 248 -556 -27 -90 -74 -150 -236 -296 l-44 -40 52 -54 52 -54 20 25 c57
71 226 335 259 405 64 133 75 187 75 380 0 182 -11 249 -62 365 -36 83 -144
238 -212 304 l-60 59 20 51 c10 28 19 56 19 62 0 5 -52 54 -115 108 -160 135
-215 208 -260 346 -20 59 -62 110 -92 110 -10 0 -32 -9 -50 -20z"/>
<path d="M2083 1972 c-115 -41 -183 -110 -254 -257 -62 -129 -91 -238 -134
-515 -20 -124 -44 -262 -55 -308 -42 -177 -108 -297 -235 -430 -88 -93 -101
-127 -62 -166 41 -41 126 -61 262 -61 98 0 133 4 190 23 357 119 633 533 696
1046 27 226 -19 469 -111 586 -64 81 -197 118 -297 82z"/>
</g>
</svg>
