<?xml version="1.0" encoding="UTF-8"?>
<!DOCTYPE svg PUBLIC "-//W3C//DTD SVG 1.1//EN" "http://www.w3.org/Graphics/SVG/1.1/DTD/svg11.dtd">
<svg xmlns="http://www.w3.org/2000/svg" version="1.1" width="260px" height="75px" style="shape-rendering:geometricPrecision; text-rendering:geometricPrecision; image-rendering:optimizeQuality; fill-rule:evenodd; clip-rule:evenodd" xmlns:xlink="http://www.w3.org/1999/xlink">
<g><path style="opacity:0.914" fill="#ffffff" d="M 42.5,26.5 C 50.1994,24.8381 54.5327,27.8381 55.5,35.5C 54.7049,38.1444 54.0382,40.8111 53.5,43.5C 45.6869,55.3815 35.0202,59.2148 21.5,55C 12.8649,47.7157 11.1983,39.049 16.5,29C 9.68139,27.8475 4.51472,24.3475 1,18.5C 0.462969,9.67555 4.62964,4.17555 13.5,2C 25.8017,-0.298209 36.9684,2.20179 47,9.5C 50.5409,8.12781 54.0409,8.29447 57.5,10C 60.0525,12.945 60.0525,15.945 57.5,19C 58.9739,21.7441 59.8073,24.5774 60,27.5C 59.586,27.9574 59.086,28.2907 58.5,28.5C 57.7227,25.4664 56.3894,22.7998 54.5,20.5C 50.6866,23.0734 46.6866,25.0734 42.5,26.5 Z M 18.5,4.5 C 27.2594,4.40427 35.5928,6.2376 43.5,10C 33.0095,12.7387 24.3429,18.2387 17.5,26.5C 14.0647,25.6326 10.7314,24.466 7.5,23C 2.16667,18.3333 2.16667,13.6667 7.5,9C 11.0531,6.87915 14.7197,5.37915 18.5,4.5 Z M 50.5,12.5 C 51.2739,11.8529 52.2739,11.5195 53.5,11.5C 57.7991,11.7623 58.4658,13.4289 55.5,16.5C 54.3954,14.3886 52.7288,13.0553 50.5,12.5 Z M 43.5,12.5 C 47.8474,12.3197 51.1807,14.153 53.5,18C 44.9589,23.5146 35.6256,26.1813 25.5,26C 30.8355,20.4822 36.8355,15.9822 43.5,12.5 Z M 42.5,26.5 C 37.9036,29.2607 34.0703,32.9273 31,37.5C 30.3333,40.1667 30.3333,42.8333 31,45.5C 35.1854,47.3054 37.1854,45.972 37,41.5C 36.1841,40.1772 35.0174,39.5106 33.5,39.5C 35.6623,33.3425 39.9956,29.6758 46.5,28.5C 50.1667,28.8333 52.1667,30.8333 52.5,34.5C 48.3338,49.5275 38.6671,55.6942 23.5,53C 18.6361,48.3507 17.4694,42.8507 20,36.5C 20.5163,33.9664 21.683,31.7998 23.5,30C 29.9331,29.3076 36.2664,28.1409 42.5,26.5 Z"/></g>
<g><path style="opacity:0.904" fill="#ffffff" d="M 169.5,25.5 C 168.833,25.5 168.5,25.8333 168.5,26.5C 167.662,26.8417 167.328,27.5084 167.5,28.5C 161.582,36.9321 155.416,45.2654 149,53.5C 146.591,55.6201 144.091,57.6201 141.5,59.5C 141.167,59 140.833,58.5 140.5,58C 148.781,43.6186 150.948,28.4519 147,12.5C 142.782,7.37031 137.616,6.20364 131.5,9C 119.563,15.7097 114.73,25.8764 117,39.5C 120.656,45.6657 125.822,47.1657 132.5,44C 140.264,37.8729 142.931,30.0395 140.5,20.5C 139.635,19.4173 138.635,19.2506 137.5,20C 139.032,23.0083 138.032,24.8417 134.5,25.5C 130.979,23.0558 130.645,20.2224 133.5,17C 138.768,15.5501 142.268,17.3835 144,22.5C 144.916,31.419 142.083,38.919 135.5,45C 122.056,51.2736 114.056,46.9402 111.5,32C 114.504,13.6451 125.171,4.97848 143.5,6C 152.143,10.2805 156.143,17.2805 155.5,27C 155.333,29.5 155.167,32 155,34.5C 153.262,39.2759 151.595,43.9425 150,48.5C 157.667,37.5 165.333,26.5 173,15.5C 178.262,9.12647 184.762,4.62647 192.5,2C 195.833,1.33333 199.167,1.33333 202.5,2C 202.957,2.41395 203.291,2.91395 203.5,3.5C 187.638,4.05935 176.304,11.3927 169.5,25.5 Z"/></g>
<g><path style="opacity:0.954" fill="#ffffff" d="M 53.5,43.5 C 60.3157,34.7426 68.9823,31.7426 79.5,34.5C 76.1094,40.1141 73.1094,45.9474 70.5,52C 70.8499,53.2575 71.5165,53.5908 72.5,53C 77.4835,48.0349 81.4835,42.3683 84.5,36C 79.4374,34.6715 79.7707,33.6715 85.5,33C 89.9918,24.8432 96.1585,18.3432 104,13.5C 105.261,13.7591 106.261,14.4258 107,15.5C 107.257,18.0168 106.59,20.3502 105,22.5C 101.466,26.3689 97.6328,29.8689 93.5,33C 94.938,33.2189 96.2713,33.7189 97.5,34.5C 94.9728,35.2136 92.4728,35.8803 90,36.5C 86.1751,44.8193 81.8418,52.8193 77,60.5C 73.4662,64.3689 69.6328,67.8689 65.5,71C 61.079,73.9425 56.7456,74.1092 52.5,71.5C 62.978,71.7277 69.978,66.7277 73.5,56.5C 69.6213,56.4129 66.788,54.7462 65,51.5C 62.7487,55.1265 59.5821,56.2931 55.5,55C 52.3284,51.6386 51.6618,47.8053 53.5,43.5 Z M 94.5,28.5 C 96.033,23.4487 99.033,19.4487 103.5,16.5C 104.408,17.79 104.241,19.1233 103,20.5C 100.297,23.3714 97.4639,26.0381 94.5,28.5 Z M 68.5,35.5 C 69.5862,35.62 70.2528,36.2867 70.5,37.5C 68.3027,43.3932 64.9694,48.5599 60.5,53C 59.552,53.4828 58.552,53.6495 57.5,53.5C 58.7061,45.9679 62.3728,39.9679 68.5,35.5 Z"/></g>
<g><path style="opacity:0.925" fill="#ffffff" d="M 169.5,25.5 C 174.895,24.5548 176.561,26.5548 174.5,31.5C 170.857,33.3472 168.524,32.3472 167.5,28.5C 168.338,28.1583 168.672,27.4916 168.5,26.5C 169.167,26.5 169.5,26.1667 169.5,25.5 Z"/></g>
<g><path style="opacity:0.704" fill="#ffffff" d="M 249.5,33.5 C 250.333,27.6653 253.166,26.3319 258,29.5C 259.376,34.4546 257.542,36.6213 252.5,36C 251.627,34.955 250.627,34.1217 249.5,33.5 Z"/></g>
<g><path style="opacity:0.944" fill="#ffffff" d="M 249.5,33.5 C 246.191,39.4456 242.858,45.4456 239.5,51.5C 240.002,52.521 240.668,52.6877 241.5,52C 244.87,48.965 247.87,45.6317 250.5,42C 251.332,41.3123 251.998,41.479 252.5,42.5C 249.083,47.9173 244.75,52.2506 239.5,55.5C 236.797,54.9615 235.297,53.2948 235,50.5C 229.928,57.4578 225.595,57.1244 222,49.5C 220.167,51.3333 218.333,53.1667 216.5,55C 212.579,55.7648 210.245,54.0981 209.5,50C 211.387,44.893 214.054,40.2264 217.5,36C 217,35.8333 216.5,35.6667 216,35.5C 213.384,37.1122 211.05,39.1122 209,41.5C 206.068,46.3768 202.901,51.0435 199.5,55.5C 197.765,54.943 196.098,54.6097 194.5,54.5C 198.516,48.7952 201.683,42.7952 204,36.5C 199.952,40.8797 196.285,45.5463 193,50.5C 190.72,54.0586 187.553,55.5586 183.5,55C 182.107,53.8289 181.273,52.3289 181,50.5C 178.998,53.887 176.165,55.387 172.5,55C 171.107,53.8289 170.273,52.3289 170,50.5C 167.416,53.5453 164.25,55.0453 160.5,55C 158.876,53.8829 157.876,52.3829 157.5,50.5C 159.621,44.9242 162.288,39.5908 165.5,34.5C 167.833,33.1667 170.167,33.1667 172.5,34.5C 168.555,39.6156 165.222,45.1156 162.5,51C 163.873,52.4787 165.373,52.312 167,50.5C 171.223,45.2761 175.056,39.7761 178.5,34C 180.579,33.1923 182.579,33.359 184.5,34.5C 180.915,40.0021 177.581,45.6688 174.5,51.5C 174.833,51.8333 175.167,52.1667 175.5,52.5C 181.248,47.1793 185.915,41.0126 189.5,34C 191.579,33.1923 193.579,33.359 195.5,34.5C 191.915,40.0021 188.581,45.6688 185.5,51.5C 187.061,52.3473 188.561,52.0139 190,50.5C 194.414,43.6659 199.747,37.6659 206,32.5C 207.713,33.8782 209.047,35.5448 210,37.5C 214.456,30.7864 218.29,30.953 221.5,38C 219.572,42.6886 217.239,47.1886 214.5,51.5C 214.833,51.8333 215.167,52.1667 215.5,52.5C 220.41,48.179 224.743,43.3456 228.5,38C 232.121,35.3563 236.121,33.523 240.5,32.5C 241.478,32.9767 242.311,33.6433 243,34.5C 245.041,33.5769 247.208,33.2436 249.5,33.5 Z M 238.5,35.5 C 239.552,35.3505 240.552,35.5172 241.5,36C 238.699,42.7991 234.366,48.2991 228.5,52.5C 227.276,50.1022 227.442,47.7689 229,45.5C 231.696,41.6393 234.863,38.306 238.5,35.5 Z"/></g>
<g><path style="opacity:0.939" fill="#ffffff" d="M 102.5,33.5 C 107.993,32.178 110.493,34.178 110,39.5C 105.828,43.0074 100.994,45.1741 95.5,46C 91.814,52.6438 93.4807,54.6438 100.5,52C 104.162,48.8712 107.495,45.3712 110.5,41.5C 111.583,42.365 111.749,43.365 111,44.5C 108.167,48.6667 104.667,52.1667 100.5,55C 91.0076,56.5105 87.5076,52.6772 90,43.5C 93.4399,39.2234 97.6066,35.8901 102.5,33.5 Z M 104.5,35.5 C 105.376,35.3691 106.043,35.7025 106.5,36.5C 104.347,39.9021 101.347,41.7354 97.5,42C 99.7293,39.5997 102.063,37.433 104.5,35.5 Z"/></g>
</svg>